# xmcd
#
# Track frame offsets: 
#        183
#        26145
#        46640
#        68910
#        93648
#        116583
#        133770
#        162758
#        178023
#        200688
#
# Disc length: 2892 seconds
#
# Revision: 0
# Processed by: cddbd v1.5.1PL0 Copyright (c) Steve Scherf et al.
# Submitted via: ExactAudioCopy v0.95a5
#
DISCID=8a0b4a0a
DTITLE=Larry Johnson - Railroad man
DYEAR=1990
DGENRE=Blues
TTITLE0=I been watching you
TTITLE1=Johnson, Where'd you get that band
TTITLE2=Johnsons's early morning blues
TTITLE3=Railroad man
TTITLE4=Summer sun
TTITLE5=Flip to flop
TTITLE6=Evil
TTITLE7=Two hearts
TTITLE8=When I'm in your arms
TTITLE9=Gone with the blues
EXTD=
EXTT0=
EXTT1=
EXTT2=
EXTT3=
EXTT4=
EXTT5=
EXTT6=
EXTT7=
EXTT8=
EXTT9=
PLAYORDER=
